<svg version="1.1" xmlns="http://www.w3.org/2000/svg" viewBox="0 0 465.7698573599175 375.5013933013936" width="931.539714719835" height="751.0027866027872">
  <!-- svg-source:excalidraw -->
  
  <defs>
    <style class="style-fonts">
      @font-face {
        font-family: "Virgil";
        src: url("https://file%2B.vscode-resource.vscode-cdn.net/Users/lotuc/.vscode/extensions/pomdtr.excalidraw-editor-3.5.1/public//dist/excalidraw-assets/Virgil.woff2");
      }
      @font-face {
        font-family: "Cascadia";
        src: url("https://file%2B.vscode-resource.vscode-cdn.net/Users/lotuc/.vscode/extensions/pomdtr.excalidraw-editor-3.5.1/public//dist/excalidraw-assets/Cascadia.woff2");
      }
    </style>
  </defs>
  <rect x="0" y="0" width="465.7698573599175" height="375.5013933013936" fill="#ffffff"></rect><g stroke-linecap="round" transform="translate(63.82289798705369 10) rotate(0 193.9609375 150.4023437499999)"><path d="M-0.78 -0.16 C143.32 -1.11, 285.35 -2.36, 387.76 0.18 M0.37 0.14 C81.48 0.65, 162.09 0.55, 388.35 -0.19 M386.57 0.54 C389.57 98.19, 389.74 196.12, 387.18 302.15 M387.99 0.06 C389.27 85.24, 388.91 169.61, 388.28 300.52 M389.04 301.78 C296.04 300.33, 204.02 299.67, 0.99 300.16 M388.01 300.74 C272.35 299.11, 156.5 298.79, 0.07 300.56 M-1.37 301.45 C-0.52 225.73, -1.64 149.99, 0.46 1.13 M0.68 300.28 C-1.48 227.61, -0.83 155.77, -0.57 0.24" stroke="#000000" stroke-width="1" fill="none"></path></g><g mask="url(#mask-yEHsYhkex0HcCn5RNzGQw)" stroke-linecap="round"><g transform="translate(166.33594919079042 354.5370283685536) rotate(0 115.35915746644287 -1.3083766187114634)"><path d="M-1.61 0.26 C56.6 -0.55, 114.92 -1.04, 232.32 -2.87 M0.79 -0.79 C60.25 -1.62, 119.5 -3.06, 231.07 -2.8" stroke="#000000" stroke-width="1" fill="none"></path></g><g transform="translate(166.33594919079042 354.5370283685536) rotate(0 115.35915746644287 -1.3083766187114634)"><path d="M201 7.81 C209.57 6.13, 218.28 3.92, 231.55 -2.57 M203.83 6.57 C210.66 5.43, 217.22 2, 230.07 -2.49" stroke="#000000" stroke-width="1" fill="none"></path></g><g transform="translate(166.33594919079042 354.5370283685536) rotate(0 115.35915746644287 -1.3083766187114634)"><path d="M200.96 -12.71 C209.54 -9.37, 218.26 -6.55, 231.55 -2.57 M203.79 -13.95 C210.53 -9.8, 217.1 -7.93, 230.07 -2.49" stroke="#000000" stroke-width="1" fill="none"></path></g></g><mask id="mask-yEHsYhkex0HcCn5RNzGQw"><rect x="0" y="0" fill="#fff" width="498.2497436443798" height="457.6082985028736"></rect><rect x="276.6728513003975" y="340.5013933013938" fill="#000" width="11.239990234375" height="25" opacity="1"></rect></mask><g transform="translate(276.6728513003977 340.5013933013936) rotate(0 5.022255356835785 12.727258448448538)"><text x="5.6199951171875" y="0" font-family="Virgil, Segoe UI Emoji" font-size="20px" fill="#000000" text-anchor="middle" style="white-space: pre;" direction="ltr" dominant-baseline="text-before-edge">x</text></g><g mask="url(#mask-3Tg9KqBr9kOxUMlrD3W3N)" stroke-linecap="round"><g transform="translate(16.66279317046019 270.28867346263655) rotate(0 -1.0749219712660079 -94.25630525969268)"><path d="M-1.71 -0.68 C1.85 -59.44, 1.12 -119.82, -2.75 -188.65 M-0.93 0.64 C-2.12 -58.99, -2.17 -117.02, -2.01 -189.16" stroke="#000000" stroke-width="1" fill="none"></path></g><g transform="translate(16.66279317046019 270.28867346263655) rotate(0 -1.0749219712660079 -94.25630525969268)"><path d="M6.51 -161.63 C6.8 -168.97, 3.42 -177.9, -2.87 -187.69 M7.29 -160.31 C4.62 -170.17, 2 -178.44, -2.14 -188.19" stroke="#000000" stroke-width="1" fill="none"></path></g><g transform="translate(16.66279317046019 270.28867346263655) rotate(0 -1.0749219712660079 -94.25630525969268)"><path d="M-14.01 -161.65 C-7.2 -168.92, -4.06 -177.84, -2.87 -187.69 M-13.23 -160.33 C-9.6 -170.23, -5.91 -178.49, -2.14 -188.19" stroke="#000000" stroke-width="1" fill="none"></path></g></g><mask id="mask-3Tg9KqBr9kOxUMlrD3W3N"><rect x="0" y="0" fill="#fff" width="118.54839232876338" height="560.4108610287292"></rect><rect x="10" y="162.72757967959024" fill="#000" width="11.439987182617188" height="25" opacity="1"></rect></mask><g transform="translate(10 162.72757967959024) rotate(0 5.587871199194183 13.304788523353636)"><text x="5.719993591308594" y="0" font-family="Virgil, Segoe UI Emoji" font-size="20px" fill="#000000" text-anchor="middle" style="white-space: pre;" direction="ltr" dominant-baseline="text-before-edge">z</text></g><g stroke-linecap="round" transform="translate(65.4635229870537 136.06334814025013) rotate(0 83.79210105672996 88.03378613495295)"><path d="M1.55 1.43 C67.14 1.49, 130.36 -1.83, 167.56 -1.25 M0.91 -0.51 C60.22 1.05, 117.84 0.71, 168.54 -0.24 M167.86 1.45 C167.88 69.93, 168.53 136.99, 166.67 175.66 M166.98 -0.41 C168.29 66.8, 168.37 136.32, 167.25 175.38 M165.83 175.14 C111.27 173.78, 56.69 172.81, -1.84 177.16 M167.43 175.76 C108.88 175.33, 51.6 175.78, 0.34 175.8 M-1.31 174.7 C1.82 127.19, 0.68 78.7, -0.94 1.24 M0.36 177.02 C1.49 111.5, 0.62 45.09, -0.43 0.28" stroke="#000000" stroke-width="1" fill="none"></path></g><g stroke-linecap="round" transform="translate(233.0885229870537 212.5390625) rotate(0 58.83203125 47.476562499999886)"><path d="M-0.96 0.71 C36.75 0.18, 71.34 0.2, 117.43 -1.78 M-0.34 0.26 C35.18 0.83, 69.63 -0.54, 117.68 0.54 M119.17 1.02 C118.46 32.2, 117.48 64.75, 119.08 94.75 M118.46 0.32 C116.79 31.27, 116.37 62.43, 117.77 95.06 M118.51 95.7 C76.37 94.26, 32.55 96.3, 1.64 94.49 M117.71 95.92 C93.94 95.94, 68.72 96.34, 0.71 95.09 M1.27 96.63 C-0.86 70.33, -1.23 48.93, -1.68 -1.16 M-0.46 94.83 C-0.79 70.76, -0.25 46.43, 0.37 0" stroke="#000000" stroke-width="1" fill="none"></path></g><g stroke-linecap="round" transform="translate(351.811939980764 160.80951338293517) rotate(0 49.91656494140625 74.04803261517293)"><path d="M1.27 1.68 C23.22 -1.4, 47.54 0.68, 98.15 -1.16 M-0.46 -0.12 C25.4 0.17, 51.64 0.3, 100.2 0 M101.42 1.04 C100.07 43.9, 99.04 88.08, 99.1 148.28 M99.33 0.38 C100.19 32.33, 98.96 63.67, 99.45 148.4 M97.84 149.76 C64.64 149.06, 29.08 146.13, -0.98 147.48 M100.19 148.89 C62.41 149.71, 24.01 148.52, 0.04 147.46 M1.02 148.26 C0.22 91.9, -0.12 37.36, 1.69 -0.29 M-0.13 148.99 C-1.78 113.4, -1.16 77.45, 0.36 0.56" stroke="#000000" stroke-width="1" fill="none"></path></g><g stroke-linecap="round" transform="translate(235.3511919294897 157.9063513501112) rotate(0 33.75223835101929 26.17032845301344)"><path d="M-1.37 0.85 C27.72 -1.6, 53.95 -1.69, 66.09 0.4 M69.29 -1.83 C68.71 19.85, 67.21 43.51, 68.3 51.4 M68.81 50.89 C52.44 54.05, 39.81 54.12, -1.16 53.01 M-1.77 50.52 C-1.44 38.21, -0.58 24.21, 0.34 -1.8" stroke="#000000" stroke-width="1.5" fill="none" stroke-dasharray="1.5 7"></path></g><g stroke-linecap="round" transform="translate(228.4487423667647 132.5427797317618) rotate(0 5.118132466423049 4.995025670647692)"><path d="M4.96 -0.38 C5.81 -0.32, 7.11 -0.16, 8.14 0.75 C9.17 1.67, 10.93 4.06, 11.16 5.12 C11.39 6.17, 10.18 6.46, 9.5 7.1 C8.83 7.74, 8.08 8.47, 7.1 8.93 C6.13 9.39, 4.59 10.17, 3.64 9.88 C2.69 9.6, 2 8.1, 1.39 7.21 C0.79 6.33, 0.01 5.78, 0.03 4.58 C0.04 3.39, 0.39 0.81, 1.49 0.04 C2.58 -0.72, 5.44 -0.22, 6.57 -0.01 C7.71 0.2, 8.25 1.06, 8.29 1.29 M3.08 0.49 C4.02 0.16, 4.72 0.71, 5.57 0.97 C6.42 1.22, 7.56 1.4, 8.18 2.01 C8.81 2.63, 9.2 3.36, 9.32 4.64 C9.44 5.92, 9.4 8.99, 8.91 9.69 C8.43 10.4, 7.7 9.05, 6.41 8.87 C5.12 8.69, 1.99 9.14, 1.18 8.61 C0.38 8.08, 1.62 6.41, 1.59 5.68 C1.56 4.96, 0.92 5.28, 1 4.26 C1.07 3.24, 1.88 0.14, 2.07 -0.45 C2.26 -1.04, 2.06 0.25, 2.14 0.71" stroke="none" stroke-width="0" fill="#000"></path><path d="M3.9 0.53 C4.79 0.25, 6.66 -0.28, 7.63 0.32 C8.59 0.93, 9.44 2.92, 9.7 4.15 C9.97 5.38, 9.55 6.67, 9.22 7.7 C8.89 8.73, 8.49 9.9, 7.7 10.34 C6.91 10.79, 5.49 10.76, 4.48 10.37 C3.48 9.97, 2.28 9.07, 1.68 7.99 C1.09 6.9, 0.83 5, 0.91 3.88 C0.99 2.76, 1.41 1.97, 2.16 1.25 C2.92 0.54, 4.74 -0.14, 5.44 -0.41 C6.14 -0.68, 6.57 -0.55, 6.38 -0.38 M8.48 0.06 C9.48 0.03, 8.65 0.7, 9.15 1.48 C9.64 2.26, 11.7 3.35, 11.46 4.75 C11.22 6.16, 8.96 9.25, 7.71 9.91 C6.46 10.57, 4.86 8.94, 3.95 8.72 C3.04 8.49, 2.79 9.19, 2.27 8.55 C1.76 7.91, 1.24 6.09, 0.87 4.86 C0.5 3.63, -0.24 1.71, 0.07 1.16 C0.37 0.62, 1.7 1.71, 2.71 1.6 C3.71 1.48, 5.42 0.76, 6.07 0.47 C6.72 0.18, 6.22 0, 6.59 -0.15" stroke="#000000" stroke-width="1" fill="none"></path></g><g stroke-linecap="round" transform="translate(344.25611814499985 208.02678979302027) rotate(0 5.118132466423049 4.995025670647692)"><path d="M4.96 -0.38 C5.81 -0.32, 7.11 -0.16, 8.14 0.75 C9.17 1.67, 10.93 4.06, 11.16 5.12 C11.39 6.17, 10.18 6.46, 9.5 7.1 C8.83 7.74, 8.08 8.47, 7.1 8.93 C6.13 9.39, 4.59 10.17, 3.64 9.88 C2.69 9.6, 2 8.1, 1.39 7.21 C0.79 6.33, 0.01 5.78, 0.03 4.58 C0.04 3.39, 0.39 0.81, 1.49 0.04 C2.58 -0.72, 5.44 -0.22, 6.57 -0.01 C7.71 0.2, 8.25 1.06, 8.29 1.29 M3.08 0.49 C4.02 0.16, 4.72 0.71, 5.57 0.97 C6.42 1.22, 7.56 1.4, 8.18 2.01 C8.81 2.63, 9.2 3.36, 9.32 4.64 C9.44 5.92, 9.4 8.99, 8.91 9.69 C8.43 10.4, 7.7 9.05, 6.41 8.87 C5.12 8.69, 1.99 9.14, 1.18 8.61 C0.38 8.08, 1.62 6.41, 1.59 5.68 C1.56 4.96, 0.92 5.28, 1 4.26 C1.07 3.24, 1.88 0.14, 2.07 -0.45 C2.26 -1.04, 2.06 0.25, 2.14 0.71" stroke="none" stroke-width="0" fill="#000"></path><path d="M3.9 0.53 C4.79 0.25, 6.66 -0.28, 7.63 0.32 C8.59 0.93, 9.44 2.92, 9.7 4.15 C9.97 5.38, 9.55 6.67, 9.22 7.7 C8.89 8.73, 8.49 9.9, 7.7 10.34 C6.91 10.79, 5.49 10.76, 4.48 10.37 C3.48 9.97, 2.28 9.07, 1.68 7.99 C1.09 6.9, 0.83 5, 0.91 3.88 C0.99 2.76, 1.41 1.97, 2.16 1.25 C2.92 0.54, 4.74 -0.14, 5.44 -0.41 C6.14 -0.68, 6.57 -0.55, 6.38 -0.38 M8.48 0.06 C9.48 0.03, 8.65 0.7, 9.15 1.48 C9.64 2.26, 11.7 3.35, 11.46 4.75 C11.22 6.16, 8.96 9.25, 7.71 9.91 C6.46 10.57, 4.86 8.94, 3.95 8.72 C3.04 8.49, 2.79 9.19, 2.27 8.55 C1.76 7.91, 1.24 6.09, 0.87 4.86 C0.5 3.63, -0.24 1.71, 0.07 1.16 C0.37 0.62, 1.7 1.71, 2.71 1.6 C3.71 1.48, 5.42 0.76, 6.07 0.47 C6.72 0.18, 6.22 0, 6.59 -0.15" stroke="#000000" stroke-width="1" fill="none"></path></g><g stroke-linecap="round" transform="translate(343.6576823322032 207.90987090496947) rotate(0 5.118132466423049 4.995025670647692)"><path d="M4.96 -0.38 C5.81 -0.32, 7.11 -0.16, 8.14 0.75 C9.17 1.67, 10.93 4.06, 11.16 5.12 C11.39 6.17, 10.18 6.46, 9.5 7.1 C8.83 7.74, 8.08 8.47, 7.1 8.93 C6.13 9.39, 4.59 10.17, 3.64 9.88 C2.69 9.6, 2 8.1, 1.39 7.21 C0.79 6.33, 0.01 5.78, 0.03 4.58 C0.04 3.39, 0.39 0.81, 1.49 0.04 C2.58 -0.72, 5.44 -0.22, 6.57 -0.01 C7.71 0.2, 8.25 1.06, 8.29 1.29 M3.08 0.49 C4.02 0.16, 4.72 0.71, 5.57 0.97 C6.42 1.22, 7.56 1.4, 8.18 2.01 C8.81 2.63, 9.2 3.36, 9.32 4.64 C9.44 5.92, 9.4 8.99, 8.91 9.69 C8.43 10.4, 7.7 9.05, 6.41 8.87 C5.12 8.69, 1.99 9.14, 1.18 8.61 C0.38 8.08, 1.62 6.41, 1.59 5.68 C1.56 4.96, 0.92 5.28, 1 4.26 C1.07 3.24, 1.88 0.14, 2.07 -0.45 C2.26 -1.04, 2.06 0.25, 2.14 0.71" stroke="none" stroke-width="0" fill="#000"></path><path d="M3.9 0.53 C4.79 0.25, 6.66 -0.28, 7.63 0.32 C8.59 0.93, 9.44 2.92, 9.7 4.15 C9.97 5.38, 9.55 6.67, 9.22 7.7 C8.89 8.73, 8.49 9.9, 7.7 10.34 C6.91 10.79, 5.49 10.76, 4.48 10.37 C3.48 9.97, 2.28 9.07, 1.68 7.99 C1.09 6.9, 0.83 5, 0.91 3.88 C0.99 2.76, 1.41 1.97, 2.16 1.25 C2.92 0.54, 4.74 -0.14, 5.44 -0.41 C6.14 -0.68, 6.57 -0.55, 6.38 -0.38 M8.48 0.06 C9.48 0.03, 8.65 0.7, 9.15 1.48 C9.64 2.26, 11.7 3.35, 11.46 4.75 C11.22 6.16, 8.96 9.25, 7.71 9.91 C6.46 10.57, 4.86 8.94, 3.95 8.72 C3.04 8.49, 2.79 9.19, 2.27 8.55 C1.76 7.91, 1.24 6.09, 0.87 4.86 C0.5 3.63, -0.24 1.71, 0.07 1.16 C0.37 0.62, 1.7 1.71, 2.71 1.6 C3.71 1.48, 5.42 0.76, 6.07 0.47 C6.72 0.18, 6.22 0, 6.59 -0.15" stroke="#000000" stroke-width="1" fill="none"></path></g><g stroke-linecap="round" transform="translate(445.5335924270714 154.7852740757471) rotate(0 5.118132466423049 4.995025670647692)"><path d="M4.96 -0.38 C5.81 -0.32, 7.11 -0.16, 8.14 0.75 C9.17 1.67, 10.93 4.06, 11.16 5.12 C11.39 6.17, 10.18 6.46, 9.5 7.1 C8.83 7.74, 8.08 8.47, 7.1 8.93 C6.13 9.39, 4.59 10.17, 3.64 9.88 C2.69 9.6, 2 8.1, 1.39 7.21 C0.79 6.33, 0.01 5.78, 0.03 4.58 C0.04 3.39, 0.39 0.81, 1.49 0.04 C2.58 -0.72, 5.44 -0.22, 6.57 -0.01 C7.71 0.2, 8.25 1.06, 8.29 1.29 M3.08 0.49 C4.02 0.16, 4.72 0.71, 5.57 0.97 C6.42 1.22, 7.56 1.4, 8.18 2.01 C8.81 2.63, 9.2 3.36, 9.32 4.64 C9.44 5.92, 9.4 8.99, 8.91 9.69 C8.43 10.4, 7.7 9.05, 6.41 8.87 C5.12 8.69, 1.99 9.14, 1.18 8.61 C0.38 8.08, 1.62 6.41, 1.59 5.68 C1.56 4.96, 0.92 5.28, 1 4.26 C1.07 3.24, 1.88 0.14, 2.07 -0.45 C2.26 -1.04, 2.06 0.25, 2.14 0.71" stroke="none" stroke-width="0" fill="#000"></path><path d="M3.9 0.53 C4.79 0.25, 6.66 -0.28, 7.63 0.32 C8.59 0.93, 9.44 2.92, 9.7 4.15 C9.97 5.38, 9.55 6.67, 9.22 7.7 C8.89 8.73, 8.49 9.9, 7.7 10.34 C6.91 10.79, 5.49 10.76, 4.48 10.37 C3.48 9.97, 2.28 9.07, 1.68 7.99 C1.09 6.9, 0.83 5, 0.91 3.88 C0.99 2.76, 1.41 1.97, 2.16 1.25 C2.92 0.54, 4.74 -0.14, 5.44 -0.41 C6.14 -0.68, 6.57 -0.55, 6.38 -0.38 M8.48 0.06 C9.48 0.03, 8.65 0.7, 9.15 1.48 C9.64 2.26, 11.7 3.35, 11.46 4.75 C11.22 6.16, 8.96 9.25, 7.71 9.91 C6.46 10.57, 4.86 8.94, 3.95 8.72 C3.04 8.49, 2.79 9.19, 2.27 8.55 C1.76 7.91, 1.24 6.09, 0.87 4.86 C0.5 3.63, -0.24 1.71, 0.07 1.16 C0.37 0.62, 1.7 1.71, 2.71 1.6 C3.71 1.48, 5.42 0.76, 6.07 0.47 C6.72 0.18, 6.22 0, 6.59 -0.15" stroke="#000000" stroke-width="1" fill="none"></path></g><g mask="url(#mask-TNfQ6EI1XD__eCl05P3DC)" stroke-linecap="round"><g transform="translate(85.24296950899111 139.7188888945384) rotate(0 -1.5613715747989545 85.08308949225363)"><path d="M-0.97 0.42 C1.18 62.87, -0.62 125.42, -2.16 169.75 M0.11 0.56 C-1.52 39.42, -1.21 79.67, -3.24 168.82" stroke="#000000" stroke-width="1" fill="none"></path></g><g transform="translate(85.24296950899111 139.7188888945384) rotate(0 -1.5613715747989545 85.08308949225363)"><path d="M0.98 -1.33 L3.68 13.45 L-8.41 12.38 L-2.89 -0.77" stroke="none" stroke-width="0" fill="#000000" fill-rule="evenodd"></path><path d="M-1.69 0.73 C2.76 6.01, 4.86 11.28, 6.78 14.58 M-0.88 0.84 C0.01 3.47, 2.44 7.14, 5.97 13.89 M5.33 13.93 C-0.24 15.12, -5.37 12.93, -8.28 12.85 M5.54 14.54 C2.29 13.35, -0.39 13.97, -6.75 13.72 M-7.93 15.42 C-5.1 11.2, -3.18 7.27, -1.09 1.85 M-7.23 13.97 C-5.73 10.86, -4.38 6.27, -1.11 0.4 M-0.97 0.42 C-0.97 0.42, -0.97 0.42, -0.97 0.42 M-0.97 0.42 C-0.97 0.42, -0.97 0.42, -0.97 0.42" stroke="#000000" stroke-width="1" fill="none"></path></g><g transform="translate(85.24296950899111 139.7188888945384) rotate(0 -1.5613715747989545 85.08308949225363)"><path d="M-1.28 167.07 L-11.02 154.55 L2.24 153.71 L-5.15 167.64" stroke="none" stroke-width="0" fill="#000000" fill-rule="evenodd"></path><path d="M-3.96 169.14 C-4.23 164.25, -6.71 159.47, -7.92 155.69 M-3.15 169.24 C-5.19 165.46, -5.68 162.72, -8.73 154.99 M-9.37 155.04 C-5.35 156.54, -0.88 154.43, 2.37 154.18 M-9.16 155.64 C-7.06 154.62, -4.41 155.29, 3.91 155.05 M2.72 156.75 C2.53 158.51, 1.58 160.57, -3.36 170.25 M3.42 155.3 C1.35 159.62, -0.9 162.55, -3.38 168.8 M-3.24 168.82 C-3.24 168.82, -3.24 168.82, -3.24 168.82 M-3.24 168.82 C-3.24 168.82, -3.24 168.82, -3.24 168.82" stroke="#000000" stroke-width="1" fill="none"></path></g></g><mask id="mask-TNfQ6EI1XD__eCl05P3DC"><rect x="0" y="0" fill="#fff" width="189.2588452334453" height="408.6960217196588"></rect><rect x="73.64503530887328" y="211.7074553070986" fill="#000" width="19.17999267578125" height="25" opacity="1"></rect></mask><g transform="translate(73.64503530887328 211.70745530709883) rotate(0 10.03656262531888 13.094523079693431)"><text x="9.589996337890625" y="0" font-family="Virgil, Segoe UI Emoji" font-size="20px" fill="#000000" text-anchor="middle" style="white-space: pre;" direction="ltr" dominant-baseline="text-before-edge">10</text></g><g mask="url(#mask-xJdFx9u6gWm-pbm4fSfCY)" stroke-linecap="round"><g transform="translate(247.54549715689336 217.05680368295543) rotate(0 0.33906079061046057 46.30937862038138)"><path d="M-0.97 0.42 C2.13 34.36, 1.69 68.37, 1.54 92.2 M0.11 0.56 C-0.71 21.25, 0.47 43.32, 0.46 91.27" stroke="#000000" stroke-width="1" fill="none"></path></g><g transform="translate(247.54549715689336 217.05680368295543) rotate(0 0.33906079061046057 46.30937862038138)"><path d="M0.98 -1.33 L4.18 13.2 L-7.9 12.6 L-2.89 -0.77" stroke="none" stroke-width="0" fill="#000000" fill-rule="evenodd"></path><path d="M-1.69 0.73 C2.95 5.93, 5.23 11.1, 7.28 14.34 M-0.88 0.84 C0.13 3.42, 2.67 7.02, 6.48 13.64 M5.83 13.69 C0.26 15.05, -4.86 13.05, -7.77 13.07 M6.04 14.29 C2.8 13.2, 0.11 13.92, -6.23 13.94 M-7.42 15.64 C-4.7 11.38, -2.9 7.4, -1.09 1.85 M-6.72 14.2 C-5.36 11.02, -4.16 6.37, -1.11 0.4 M-0.97 0.42 C-0.97 0.42, -0.97 0.42, -0.97 0.42 M-0.97 0.42 C-0.97 0.42, -0.97 0.42, -0.97 0.42" stroke="#000000" stroke-width="1" fill="none"></path></g><g transform="translate(247.54549715689336 217.05680368295543) rotate(0 0.33906079061046057 46.30937862038138)"><path d="M2.42 89.52 L-7.67 77.17 L5.6 76 L-1.46 90.09" stroke="none" stroke-width="0" fill="#000000" fill-rule="evenodd"></path><path d="M-0.26 91.59 C-0.65 86.76, -3.26 82.03, -4.57 78.3 M0.55 91.69 C-1.57 87.95, -2.14 85.25, -5.38 77.6 M-6.02 77.65 C-2 79.02, 2.47 76.8, 5.73 76.47 M-5.81 78.25 C-3.71 77.16, -1.06 77.76, 7.26 77.34 M6.08 79.04 C5.96 80.84, 5.09 82.93, 0.34 92.7 M6.77 77.59 C4.8 81.95, 2.65 84.93, 0.32 91.26 M0.46 91.27 C0.46 91.27, 0.46 91.27, 0.46 91.27 M0.46 91.27 C0.46 91.27, 0.46 91.27, 0.46 91.27" stroke="#000000" stroke-width="1" fill="none"></path></g></g><mask id="mask-xJdFx9u6gWm-pbm4fSfCY"><rect x="0" y="0" fill="#fff" width="347.86296289513166" height="408.48651476433156"></rect><rect x="241.20677161199296" y="250.2716592236436" fill="#000" width="12.3599853515625" height="25" opacity="1"></rect></mask><g transform="translate(241.20677161199296 250.27165922364384) rotate(0 6.677786335510859 13.094523079693204)"><text x="6.17999267578125" y="0" font-family="Virgil, Segoe UI Emoji" font-size="20px" fill="#000000" text-anchor="middle" style="white-space: pre;" direction="ltr" dominant-baseline="text-before-edge">5</text></g><g mask="url(#mask-IrUvgmA1FC67Y8cAGZ4mV)" stroke-linecap="round"><g transform="translate(376.1341381949462 163.11534386348262) rotate(0 -0.7801020443431526 73.2487571418601)"><path d="M-0.97 0.42 C1.51 54.17, 0.16 108.01, -0.92 146.08 M0.11 0.56 C-1.25 33.87, -0.65 68.57, -1.99 145.15" stroke="#000000" stroke-width="1" fill="none"></path></g><g transform="translate(376.1341381949462 163.11534386348262) rotate(0 -0.7801020443431526 73.2487571418601)"><path d="M0.98 -1.33 L3.79 13.4 L-8.3 12.43 L-2.89 -0.77" stroke="none" stroke-width="0" fill="#000000" fill-rule="evenodd"></path><path d="M-1.69 0.73 C2.8 5.99, 4.94 11.24, 6.88 14.53 M-0.88 0.84 C0.03 3.46, 2.49 7.11, 6.08 13.84 M5.44 13.88 C-0.13 15.11, -5.26 12.96, -8.17 12.9 M5.64 14.49 C2.4 13.32, -0.29 13.96, -6.64 13.77 M-7.82 15.47 C-5.01 11.24, -3.12 7.3, -1.09 1.85 M-7.13 14.02 C-5.65 10.9, -4.34 6.29, -1.11 0.4 M-0.97 0.42 C-0.97 0.42, -0.97 0.42, -0.97 0.42 M-0.97 0.42 C-0.97 0.42, -0.97 0.42, -0.97 0.42" stroke="#000000" stroke-width="1" fill="none"></path></g><g transform="translate(376.1341381949462 163.11534386348262) rotate(0 -0.7801020443431526 73.2487571418601)"><path d="M-0.04 143.4 L-9.86 130.92 L3.41 130 L-3.91 143.97" stroke="none" stroke-width="0" fill="#000000" fill-rule="evenodd"></path><path d="M-2.72 145.47 C-3.01 140.6, -5.52 135.82, -6.76 132.05 M-1.91 145.57 C-3.97 141.8, -4.48 139.07, -7.56 131.36 M-8.21 131.4 C-4.19 132.87, 0.28 130.75, 3.54 130.47 M-8 132.01 C-5.9 130.97, -3.25 131.62, 5.07 131.34 M3.89 133.04 C3.71 134.81, 2.78 136.88, -2.11 146.58 M4.58 131.59 C2.53 135.92, 0.31 138.86, -2.14 145.14 M-1.99 145.15 C-1.99 145.15, -1.99 145.15, -1.99 145.15 M-1.99 145.15 C-1.99 145.15, -1.99 145.15, -1.99 145.15" stroke="#000000" stroke-width="1" fill="none"></path></g></g><mask id="mask-IrUvgmA1FC67Y8cAGZ4mV"><rect x="0" y="0" fill="#fff" width="478.9091312413068" height="408.4238119878162"></rect><rect x="367.09664777528155" y="223.26957792564917" fill="#000" width="15.29998779296875" height="25" opacity="1"></rect></mask><g transform="translate(367.09664777528155 223.26957792564963) rotate(0 8.257388375321511 13.094523079693317)"><text x="7.649993896484375" y="0" font-family="Virgil, Segoe UI Emoji" font-size="20px" fill="#000000" text-anchor="middle" style="white-space: pre;" direction="ltr" dominant-baseline="text-before-edge">8</text></g><g mask="url(#mask-zaWvMUfMMIIwPljegR-5O)" stroke-linecap="round"><g transform="translate(228.702680517192 280.8081392339252) rotate(0 -79.61876711896491 0.3534103603190033)"><path d="M-0.97 0.42 C-57.18 -0.71, -116.45 -0.29, -158.28 0.95 M0.11 0.56 C-38.24 -0.36, -74.52 0.31, -159.35 0.02" stroke="#000000" stroke-width="1" fill="none"></path></g><g transform="translate(228.702680517192 280.8081392339252) rotate(0 -79.61876711896491 0.3534103603190033)"><path d="M0.98 -1.33 L-16.29 6.16 L-15.67 -7.61 L-2.89 -0.77" stroke="none" stroke-width="0" fill="#000000" fill-rule="evenodd"></path><path d="M-1.69 0.73 C-4.63 3.14, -9.88 5.73, -13.19 7.3 M-0.88 0.84 C-4.68 1.74, -6.93 3.69, -14 6.6 M-14.64 6.65 C-15.41 3.14, -15.72 -3.84, -15.53 -7.14 M-14.43 7.25 C-14.99 3.45, -15 1.39, -14 -6.27 M-15.18 -4.57 C-10.87 -4.36, -7.36 -3.87, -1.09 1.85 M-14.49 -6.01 C-10.96 -3.51, -7.59 -2.54, -1.11 0.4 M-0.97 0.42 C-0.97 0.42, -0.97 0.42, -0.97 0.42 M-0.97 0.42 C-0.97 0.42, -0.97 0.42, -0.97 0.42" stroke="#000000" stroke-width="1" fill="none"></path></g><g transform="translate(228.702680517192 280.8081392339252) rotate(0 -79.61876711896491 0.3534103603190033)"><path d="M-157.4 -1.73 L-147.45 -6.86 L-146.88 4.73 L-161.27 -1.16" stroke="none" stroke-width="0" fill="#000000" fill-rule="evenodd"></path><path d="M-160.08 0.33 C-153.06 -1.65, -148.3 -3.71, -144.36 -5.73 M-159.27 0.44 C-156.69 -1.58, -152.56 -2.59, -145.16 -6.42 M-145.81 -6.38 C-146.58 -0.29, -146.91 2.32, -146.75 5.2 M-145.6 -5.77 C-146.18 -4.23, -146.2 -0.94, -145.22 6.07 M-146.4 7.77 C-148.02 5.15, -150.51 2.82, -159.47 1.45 M-145.71 6.32 C-149.73 5.07, -153.92 2.5, -159.49 0 M-159.35 0.02 C-159.35 0.02, -159.35 0.02, -159.35 0.02 M-159.35 0.02 C-159.35 0.02, -159.35 0.02, -159.35 0.02" stroke="#000000" stroke-width="1" fill="none"></path></g></g><mask id="mask-zaWvMUfMMIIwPljegR-5O"><rect x="0" y="0" fill="#fff" width="488.8333473299781" height="380.9838123909851"></rect><rect x="142.5473507729082" y="268.3959758124556" fill="#000" width="12.17999267578125" height="25" opacity="1"></rect></mask><g transform="translate(142.5473507729082 268.3959758124554) rotate(0 6.536562625318879 12.765573781788817)"><text x="6.089996337890625" y="0" font-family="Virgil, Segoe UI Emoji" font-size="20px" fill="#000000" text-anchor="middle" style="white-space: pre;" direction="ltr" dominant-baseline="text-before-edge">9</text></g><g mask="url(#mask-ZiVQ7Z-fRYs3tv3oQiIpK)" stroke-linecap="round"><g transform="translate(348.12509113084593 281.05769165996685) rotate(0 -56.5754440582466 -0.20931101387509443)"><path d="M-0.97 0.42 C-40.22 -0.65, -82.52 -0.6, -112.19 -0.05 M0.11 0.56 C-27.43 -0.53, -52.92 -0.09, -113.26 -0.98" stroke="#000000" stroke-width="1" fill="none"></path></g><g transform="translate(348.12509113084593 281.05769165996685) rotate(0 -56.5754440582466 -0.20931101387509443)"><path d="M0.98 -1.33 L-16.33 6.07 L-15.62 -7.7 L-2.89 -0.77" stroke="none" stroke-width="0" fill="#000000" fill-rule="evenodd"></path><path d="M-1.69 0.73 C-4.64 3.11, -9.91 5.66, -13.24 7.2 M-0.88 0.84 C-4.69 1.72, -6.95 3.65, -14.04 6.51 M-14.68 6.55 C-15.42 3.05, -15.7 -3.94, -15.49 -7.23 M-14.48 7.15 C-15.01 3.35, -15 1.3, -13.95 -6.36 M-15.14 -4.66 C-10.84 -4.43, -7.33 -3.92, -1.09 1.85 M-14.44 -6.11 C-10.92 -3.57, -7.57 -2.59, -1.11 0.4 M-0.97 0.42 C-0.97 0.42, -0.97 0.42, -0.97 0.42 M-0.97 0.42 C-0.97 0.42, -0.97 0.42, -0.97 0.42" stroke="#000000" stroke-width="1" fill="none"></path></g><g transform="translate(348.12509113084593 281.05769165996685) rotate(0 -56.5754440582466 -0.20931101387509443)"><path d="M-111.31 -2.73 L-101.3 -7.72 L-100.86 3.87 L-115.18 -2.16" stroke="none" stroke-width="0" fill="#000000" fill-rule="evenodd"></path><path d="M-113.99 -0.66 C-106.95 -2.59, -102.16 -4.61, -98.21 -6.58 M-113.18 -0.56 C-110.59 -2.55, -106.45 -3.52, -99.01 -7.28 M-99.66 -7.23 C-100.48 -1.15, -100.86 1.46, -100.73 4.34 M-99.45 -6.63 C-100.06 -5.09, -100.11 -1.8, -99.2 5.21 M-100.38 6.91 C-101.98 4.26, -104.45 1.9, -113.38 0.45 M-99.68 5.46 C-103.69 4.18, -107.86 1.56, -113.41 -0.99 M-113.26 -0.98 C-113.26 -0.98, -113.26 -0.98, -113.26 -0.98 M-113.26 -0.98 C-113.26 -0.98, -113.26 -0.98, -113.26 -0.98" stroke="#000000" stroke-width="1" fill="none"></path></g></g><mask id="mask-ZiVQ7Z-fRYs3tv3oQiIpK"><rect x="0" y="0" fill="#fff" width="562.1691118221954" height="381.87883457527073"></rect><rect x="284.92308810938994" y="268.14712020231445" fill="#000" width="12.3599853515625" height="25" opacity="1"></rect></mask><g transform="translate(284.92308810938994 268.1471202023147) rotate(0 6.626558963209391 12.701260443777073)"><text x="6.17999267578125" y="0" font-family="Virgil, Segoe UI Emoji" font-size="20px" fill="#000000" text-anchor="middle" style="white-space: pre;" direction="ltr" dominant-baseline="text-before-edge">5</text></g><g mask="url(#mask-r83WIhCzDcwVBk53-dUT0)" stroke-linecap="round"><g transform="translate(450.3448962222992 283.5665404002964) rotate(0 -50.61451766801133 -0.20996965648555488)"><path d="M-0.97 0.42 C-35.83 -0.54, -73.75 -0.49, -100.27 -0.05 M0.11 0.56 C-24.64 -0.52, -47.33 -0.07, -101.34 -0.98" stroke="#000000" stroke-width="1" fill="none"></path></g><g transform="translate(450.3448962222992 283.5665404002964) rotate(0 -50.61451766801133 -0.20996965648555488)"><path d="M0.98 -1.33 L-16.33 6.06 L-15.62 -7.7 L-2.89 -0.77" stroke="none" stroke-width="0" fill="#000000" fill-rule="evenodd"></path><path d="M-1.69 0.73 C-4.64 3.11, -9.92 5.65, -13.24 7.2 M-0.88 0.84 C-4.69 1.71, -6.95 3.65, -14.04 6.5 M-14.68 6.55 C-15.42 3.05, -15.7 -3.94, -15.49 -7.23 M-14.48 7.15 C-15.01 3.35, -15 1.29, -13.95 -6.36 M-15.14 -4.66 C-10.84 -4.44, -7.33 -3.92, -1.09 1.85 M-14.44 -6.11 C-10.92 -3.58, -7.57 -2.59, -1.11 0.4 M-0.97 0.42 C-0.97 0.42, -0.97 0.42, -0.97 0.42 M-0.97 0.42 C-0.97 0.42, -0.97 0.42, -0.97 0.42" stroke="#000000" stroke-width="1" fill="none"></path></g><g transform="translate(450.3448962222992 283.5665404002964) rotate(0 -50.61451766801133 -0.20996965648555488)"><path d="M-99.39 -2.73 L-89.37 -7.7 L-88.95 3.89 L-103.26 -2.16" stroke="none" stroke-width="0" fill="#000000" fill-rule="evenodd"></path><path d="M-102.07 -0.66 C-95.02 -2.59, -90.23 -4.59, -86.28 -6.56 M-101.26 -0.56 C-98.66 -2.54, -94.52 -3.51, -87.08 -7.26 M-87.72 -7.21 C-88.55 -1.13, -88.94 1.48, -88.82 4.36 M-87.52 -6.61 C-88.13 -5.07, -88.18 -1.78, -87.28 5.23 M-88.47 6.93 C-90.07 4.27, -92.54 1.91, -101.46 0.45 M-87.77 5.48 C-91.78 4.19, -95.95 1.57, -101.48 -1 M-101.34 -0.98 C-101.34 -0.98, -101.34 -0.98, -101.34 -0.98 M-101.34 -0.98 C-101.34 -0.98, -101.34 -0.98, -101.34 -0.98" stroke="#000000" stroke-width="1" fill="none"></path></g></g><mask id="mask-r83WIhCzDcwVBk53-dUT0"><rect x="0" y="0" fill="#fff" width="652.4670641331782" height="384.3890006008212"></rect><rect x="392.88381837037537" y="270.6553103000342" fill="#000" width="12.79998779296875" height="25" opacity="1"></rect></mask><g transform="translate(392.88381837037537 270.6553103000342) rotate(0 6.846560183912516 12.701260443776846)"><text x="6.399993896484375" y="0" font-family="Virgil, Segoe UI Emoji" font-size="20px" fill="#000000" text-anchor="middle" style="white-space: pre;" direction="ltr" dominant-baseline="text-before-edge">4</text></g></svg>