<svg version="1.1" xmlns="http://www.w3.org/2000/svg" viewBox="0 0 596.9166606864139 422.89929611450543" width="1193.8333213728279" height="845.7985922290109">
  <!-- svg-source:excalidraw -->
  
  <defs>
    <style class="style-fonts">
      @font-face {
        font-family: "Virgil";
        src: url("https://file%2B.vscode-resource.vscode-cdn.net/Users/lotuc/.vscode/extensions/pomdtr.excalidraw-editor-3.5.1/public//dist/excalidraw-assets/Virgil.woff2");
      }
      @font-face {
        font-family: "Cascadia";
        src: url("https://file%2B.vscode-resource.vscode-cdn.net/Users/lotuc/.vscode/extensions/pomdtr.excalidraw-editor-3.5.1/public//dist/excalidraw-assets/Cascadia.woff2");
      }
    </style>
  </defs>
  <rect x="0" y="0" width="596.9166606864139" height="422.89929611450543" fill="#ffffff"></rect><g stroke-linecap="round" transform="translate(61.152517922900415 12.016697449609637) rotate(0 154.3780517578125 114.12197875976562)"><path d="M0.87 -1.34 C74.52 -2.74, 149.24 -1.33, 309.22 -0.51 M307.21 -0.9 C309.18 77.87, 307.7 156.06, 309.17 229.69 M308.95 228.92 C197.92 226.27, 89.81 225.21, 0.43 228.38 M0.44 228.63 C1.63 145.83, 2.47 63.86, 0.45 -0.53" stroke="#000000" stroke-width="1.5" fill="none" stroke-dasharray="1.5 7"></path></g><g stroke-linecap="round" transform="translate(174.51409018852542 130.08127264492214) rotate(0 173.5107421875 110.350341796875)"><path d="M0.33 0.9 C114.5 3.24, 228.87 1.87, 347.54 -1.15 M-0.42 0.06 C83.97 -1.87, 168.66 -1.69, 347.4 0.4 M348.04 0.59 C349.36 49.84, 346.46 98.12, 345.8 219.61 M347.2 -0.85 C345.56 53.07, 345.76 105.52, 346.88 220.07 M346.9 221.27 C269.84 220.74, 190.17 221.31, -0.19 220.69 M347.17 220.78 C250.14 222.1, 154.75 222.17, -0.41 220.47 M-1.35 220.2 C0.22 140.45, -0.63 60.78, -1.59 1.52 M-0.6 220.12 C1.68 162.54, 2.23 104.89, -0.14 0.41" stroke="#000000" stroke-width="1" fill="none"></path></g><g stroke-linecap="round" transform="translate(91.91411460258792 210.3987164925784) rotate(0 101.205322265625 24.39862060546875)"><path d="M0 0 C0 0, 0 0, 0 0 M0 0 C0 0, 0 0, 0 0 M-1.03 6.31 C0.57 4.07, 2.8 3.22, 5.09 -0.13 M-0.4 6.28 C1.8 4.24, 3.73 1.49, 4.71 0.51 M-0.13 11.47 C3.98 9.83, 6.91 3.93, 12.03 -0.2 M0.29 12.25 C1.75 9.85, 3.61 7.19, 10.35 -0.25 M0.39 19.98 C7.31 13.46, 13.93 2.97, 15.73 0.91 M-0.62 19.16 C2.67 15.61, 5.27 11.53, 15.94 -0.16 M2.09 23.37 C8.51 14.83, 15.42 5.6, 23.12 -0.28 M0.43 23.72 C6.04 17.05, 12.62 9.5, 21.93 -0.93 M-0.03 31.05 C8.53 23.24, 16 12.13, 24.64 0.94 M0.47 30.29 C7.88 21.54, 14.14 12.56, 25.65 -0.6 M0.41 38.45 C12.81 22.99, 23.59 8.06, 30.06 1.74 M-0.4 36.3 C10.55 25.68, 20.67 11.8, 30.98 -0.97 M-0.67 43.89 C14.6 26.72, 29.99 9.99, 37.73 -1.48 M-0.51 42.61 C13.52 25.08, 28.33 9.42, 36.35 -0.49 M-1.58 47.72 C11.16 35.88, 24.45 21.95, 44.06 -0.26 M0.78 48.93 C13.6 31.93, 27.27 15.55, 42.46 -0.25 M4.55 50.78 C14.61 39.51, 25.88 28.7, 48.44 0.71 M2.76 51.56 C17.08 36.91, 31.37 20.68, 48.39 1.16 M10.09 50.57 C22.49 35.85, 33.4 23.1, 54.69 0.42 M8.87 51.84 C22.28 34.66, 34.99 18.85, 53.28 -0.27 M15.09 49.77 C30.82 31.6, 46.65 13.71, 59.96 0.35 M13.12 51.94 C29.17 34.78, 44.1 16.6, 58.48 1.15 M20.66 52.76 C32.42 34.94, 47.48 19.6, 64.23 1.27 M18.71 51.7 C35.38 31.24, 53.01 12.04, 63.22 -1.15 M25.98 52.76 C43.13 28.98, 61.65 11.18, 67.18 2.08 M23.2 51 C36.86 37.72, 49.23 22.1, 68.75 -0.83 M31.68 50.57 C44.38 32.28, 59.73 16.22, 73.68 0.57 M29.15 50.79 C39.13 39.62, 49.41 27.57, 73.99 -0.64 M34.85 51.42 C44.59 42.14, 54.47 28.88, 78.71 0.29 M35.35 51.28 C45.26 40.03, 54.93 28.16, 79.7 0.76 M40.39 51.77 C57.37 30.92, 74.76 13.9, 84.78 -0.65 M41.39 50.95 C52.22 37.71, 62.18 25.86, 84.15 -1.16 M44.05 52.15 C62.64 33.72, 76.6 12.96, 90.89 1.19 M44.86 50.7 C58.75 36.55, 69.74 22.95, 89.25 0.32 M51.1 52.69 C62.95 39.69, 73.87 27.83, 93.96 -0.56 M51.36 51.65 C68.3 33.19, 83.55 12.63, 96.19 -0.74 M54.65 50.17 C72.59 34.85, 89.05 15.47, 101.77 0.74 M56.88 51.52 C70.13 33.69, 84.29 18.26, 99.66 0.12 M59.79 53.15 C80.05 30.62, 96.71 9.6, 106.39 1.47 M61.34 51.96 C72.7 36.51, 86.11 21.84, 105.46 -0.08 M68.43 51.46 C82.09 34.14, 94.7 20.16, 113.12 -1.31 M67.46 51.38 C78.46 37.27, 90.64 23.97, 110.64 -0.72 M72.2 51.05 C87.03 32.35, 106.61 13.3, 117.29 -0.42 M71.04 52.06 C79.57 40.44, 89.69 31.39, 116.55 1.26 M77.91 50.79 C93.39 35.16, 105.31 19.88, 120.43 0.58 M76.54 52.25 C92.1 33.03, 108.6 15.09, 122.24 0.76 M80.45 53.3 C98.58 35.43, 111.41 18.58, 128.57 0.43 M83.24 51.24 C93.23 39.37, 104.76 26.99, 126.92 0.81 M88.3 49.72 C99.26 36.01, 112.98 21.25, 130.92 -0.27 M88.94 51.48 C99.83 38, 110.74 25.43, 131.94 0.42 M92.38 50.58 C106.65 37.93, 115.42 26.34, 138.89 1.74 M92.07 51.66 C107.81 34.4, 121.11 17.15, 137.95 0.71 M99.55 50.56 C109.04 37.72, 117.56 25.69, 141.5 -0.78 M99.38 50.79 C115.45 31.26, 132.99 11.54, 143.57 -0.05 M105.52 51.36 C120.37 30.76, 137.8 15.33, 148.29 -0.76 M104.08 51.32 C113.11 39.18, 124.76 27.02, 148.55 -0.29 M108.32 50.43 C120.6 36.23, 134.21 22.52, 152.82 -2.06 M109.48 51.23 C126.46 30.6, 144.39 10.4, 154.4 -0.1 M113.17 51.89 C131.12 31.86, 146.17 16.55, 159.53 1.44 M113.19 51.1 C129.94 33.13, 146.43 13.98, 159.55 0.92 M117.98 51.23 C129.42 40.28, 141.03 26.27, 163.25 0.55 M120.74 50.23 C131.5 37.69, 143.59 24.13, 164.05 0.7 M126.29 50.22 C140.25 36.27, 152.47 21.11, 168.08 -0.35 M125.74 51.73 C140.68 32.29, 155.98 15.19, 168.65 0.82 M128.65 49.63 C145.38 30.79, 163.13 12.08, 174.87 -0.52 M129.55 50.58 C140.37 39.13, 150.47 28.19, 175.54 -0.39 M135.61 52.15 C152.03 31.74, 168.55 11.28, 180.13 1.95 M135.43 50.78 C147.94 37.91, 160.28 23.67, 179.44 0.24 M139.13 51.09 C153.17 37.98, 167.92 21.35, 187.48 0.96 M140.19 51.41 C150.37 39.34, 160.08 27.86, 186.29 -0.21 M145.55 53.28 C164 31.7, 182.19 11.11, 190.59 -0.8 M146.36 51.72 C156.54 37.64, 169.72 24.96, 190.4 -0.63 M152.97 51.84 C161.73 35.32, 176.59 24.91, 196.61 -1.01 M151.83 51.23 C163.07 38.12, 172.88 26.54, 197.11 -0.79 M156.25 52.99 C170.6 33.82, 183.96 17.01, 201.1 -0.95 M156.03 50.84 C165.76 40.02, 177.11 26.98, 201.92 0.75 M159.76 53.65 C173.75 38.64, 181.11 28.73, 205.52 3.61 M160.89 51.66 C171.41 40.85, 181 29.24, 205.22 2 M165.59 52.44 C178.54 39.85, 187.37 31.19, 202.78 8.21 M168.32 52.33 C183.19 35.29, 196.95 16.44, 204.05 8.6 M171.79 50.81 C181.63 43.75, 188.09 33.82, 204.62 13.94 M172.62 51.41 C183.67 38.61, 195.23 26.33, 204.66 14.42 M179.14 52.56 C186.42 41.28, 192.74 33.81, 204.65 21.37 M178.5 51.19 C188.15 41.04, 196.85 29.36, 203.87 20.66 M182.09 52.67 C189.93 43.81, 194.55 36.09, 204.45 26.28 M182.23 51.81 C189.07 44.54, 193.93 37.47, 204.27 25.98 M188.21 52.08 C196.42 45.41, 202.96 35.31, 203.76 32.74 M188.25 50.32 C194.59 44.5, 200.27 38.06, 204.72 32.79 M193.16 50.74 C196.51 49.41, 200 43.96, 204.72 40.02 M194.3 50.94 C197.55 47.28, 201.94 43.11, 205.58 38.65 M199.49 50.48 C201.45 48.85, 202.96 47.43, 204.9 44.76 M198.95 51.36 C201.12 49.09, 203.37 46.85, 204.86 44.7" stroke="#c92a2a" stroke-width="0.5" fill="none"></path><path d="M-1.31 -1.4 C52.95 0.34, 106.8 -0.53, 202.74 -1.65 M202.04 -1.38 C200.87 19.61, 200.86 39.82, 200.88 48.47 M202.98 48.36 C132.6 47.2, 61.02 47.81, -1.08 50.34 M-0.01 48.81 C-2.31 40.48, -0.94 27.2, -0.49 -1.08" stroke="#c92a2a" stroke-width="1.5" fill="none" stroke-dasharray="8 9"></path></g><g stroke-linecap="round" transform="translate(64.68736899711917 189.29379705898464) rotate(0 101.205322265625 24.39862060546875)"><path d="M-1.31 -1.4 C52.95 0.34, 106.8 -0.53, 202.74 -1.65 M202.04 -1.38 C200.87 19.61, 200.86 39.82, 200.88 48.47 M202.98 48.36 C132.6 47.2, 61.02 47.81, -1.08 50.34 M-0.01 48.81 C-2.31 40.48, -0.94 27.2, -0.49 -1.08" stroke="#c92a2a" stroke-width="1.5" fill="none" stroke-dasharray="8 9"></path></g><g stroke-linecap="round" transform="translate(268.6056429229004 187.56357244960964) rotate(0 50.4656982421875 25.64703369140625)"><path d="M-0.08 1.46 C29.84 2.44, 60.89 2.87, 99.02 1 M100.64 1.75 C102.51 16.35, 101.52 33.54, 101.31 49.95 M102.12 51.75 C61.61 50.58, 20.84 51.86, -0.24 51.25 M1.02 49.74 C0.41 33.07, 1.14 15.43, 0.2 -0.2" stroke="#0b7285" stroke-width="1.5" fill="none" stroke-dasharray="8 9"></path></g><g stroke-linecap="round" transform="translate(329.6718050322754 233.8534284066409) rotate(0 50.4656982421875 25.64703369140625)"><path d="M0 0 C0 0, 0 0, 0 0 M0 0 C0 0, 0 0, 0 0 M-0.53 5.76 C0.67 4.66, 1.89 4.5, 4.58 -0.3 M-0.34 6.74 C0.72 5.36, 2.01 4, 5.25 0.46 M1.05 11.86 C2.8 7.95, 6.19 2.2, 10.06 -0.07 M-0.25 11.41 C2.24 8.6, 5.21 6.07, 11.1 -0.29 M-0.81 20.2 C7.63 11.58, 10.99 3.6, 14.29 -1.49 M-0.71 18.61 C5.35 12.84, 9.66 7.89, 16.56 0.91 M-1.27 22.15 C7.21 15.73, 15.24 8.4, 23.18 -0.27 M1.07 24.19 C8.96 14.47, 17.31 4.9, 21.49 0.2 M0.28 29.73 C10.46 20.46, 19.9 5.92, 24.47 -1.57 M-0.17 30.77 C9.02 19.97, 16.6 11.22, 25.89 0.87 M-1.89 35.87 C11.48 23.12, 24.18 9.71, 29.91 1.28 M-0.66 37.1 C10.88 25.31, 20.47 12.06, 32.08 0.13 M-0.77 40.81 C10.75 29.8, 21.75 13.26, 36.67 -1.08 M-0.56 42.67 C10.41 32.49, 18.89 20.54, 37.66 0.6 M0.26 48.53 C6.89 37.2, 18.09 29.24, 41.42 0.13 M0.12 49.27 C14.01 33.82, 25.28 19.17, 41.83 0.59 M2.07 52.12 C12.19 38.87, 23.93 25.85, 45.86 0.1 M2.57 52.68 C13.66 39.84, 25.95 26.88, 48.26 -0.4 M8.08 53.34 C20.52 38.68, 33.42 24.92, 54.81 -1.48 M6.66 53.32 C22.06 35.21, 37.22 17.09, 53.43 0.66 M11.12 53.48 C27.42 37.94, 40.04 21.4, 57.76 -0.15 M12.12 53.48 C21.7 41.93, 32.56 31, 57.46 -0.24 M16.74 53.32 C32.22 33.21, 50.74 15.21, 62.96 -0.56 M17.11 52.36 C28.26 41.64, 38.74 29.62, 64.45 0.27 M23.46 51.04 C34.67 41.07, 44.5 31.31, 66.91 -0.24 M22.77 52.29 C38.54 33.53, 55.7 16.27, 69.35 0.34 M26.86 54.45 C46.31 34.01, 59.53 13.48, 72.52 0.56 M28.6 52.12 C37.04 42.26, 47.41 30.64, 74.29 -0.71 M35.12 51.14 C47.58 37.39, 59.23 19.39, 78.6 -0.88 M34.25 53.64 C44.11 41.54, 53.94 29.81, 79.41 1.02 M41.11 52.67 C59.03 32.08, 76.01 10.87, 85.95 0.32 M38.92 52.96 C50.57 39.42, 60.11 27.65, 85.23 0.44 M45.92 52.79 C59.17 35.57, 75.22 14.53, 90.91 0.95 M43.15 52.96 C58.97 35.27, 74.35 18.39, 89.48 0.85 M50.95 51.61 C58.42 42.23, 68.82 27.93, 95.45 -0.18 M50.21 52.62 C63.68 35.62, 80.66 17.74, 95.42 0.35 M53.45 53.77 C74.19 32.05, 88.99 13.9, 100.7 2 M53.91 53.55 C68.51 36.29, 81.52 20.7, 100.73 -0.73 M58.61 52.64 C71.89 42.22, 79.24 30.88, 102.4 3.95 M59.98 53.24 C70.21 40.24, 81.78 28.86, 103.21 3.55 M67.09 52.54 C77.57 36.43, 94.7 19.29, 102.39 7.02 M65.85 53.61 C78.89 37.59, 91.88 22, 103.52 7.42 M70.45 53.61 C79.33 43.71, 84.07 36.43, 103.35 15.31 M69.42 53.09 C82.69 39.78, 93 25.86, 104.22 15.5 M77.99 54.3 C85.65 42.72, 91.53 34.28, 103.7 22.43 M76.13 53.26 C85.07 41.77, 94.55 30.97, 104.01 20.77 M81.59 51.8 C87.56 46.4, 92.13 38.7, 103.73 26.13 M81.08 52.57 C88.71 43.72, 98 33.24, 104.04 27.44 M85.11 52.95 C90.27 45.15, 96.25 40.04, 102.42 32.82 M86.77 53.46 C91.98 45.56, 99.02 38.75, 104.08 32.64 M90.04 54.42 C96.29 47.96, 96.18 47.42, 102.94 40.33 M91.86 53.73 C95.44 48.77, 98.85 46.04, 104.22 39.5 M97.2 52.94 C99.73 51.15, 100.12 48.52, 102.85 45.89 M97.46 52.92 C98.21 50.64, 99.77 49.05, 103.76 44.99" stroke="#0b7285" stroke-width="0.5" fill="none"></path><path d="M-0.08 1.46 C29.84 2.44, 60.89 2.87, 99.02 1 M100.64 1.75 C102.51 16.35, 101.52 33.54, 101.31 49.95 M102.12 51.75 C61.61 50.58, 20.84 51.86, -0.24 51.25 M1.02 49.74 C0.41 33.07, 1.14 15.43, 0.2 -0.2" stroke="#0b7285" stroke-width="1.5" fill="none" stroke-dasharray="8 9"></path></g><g stroke-linecap="round"><g transform="translate(62.168142922900415 239.14169744960964) rotate(0 54.82894905982539 57.252746385056525)"><path d="M1.82 0.16 C31.1 30.05, 59.65 63.18, 109.32 114.06 M0.34 0.96 C41.94 44.32, 85.04 90.93, 109.27 114.34" stroke="#000000" stroke-width="1" fill="none"></path></g></g><mask></mask><g stroke-linecap="round"><g transform="translate(366.4237581572754 238.98434881679714) rotate(0 76.8844915498048 55.591405315324664)"><path d="M1.33 -0.04 C56.46 41.35, 110.05 82.58, 152.44 111.22" stroke="#000000" stroke-width="1.5" fill="none" stroke-dasharray="8 9"></path></g></g><mask></mask><g stroke-linecap="round"><g transform="translate(267.1525179229004 237.85263494960964) rotate(0 31.389763159677386 23.809391187503934)"><path d="M-0.83 -0.9 C16.24 11, 31.71 22.55, 63.61 48.52" stroke="#000000" stroke-width="1.5" fill="none" stroke-dasharray="8 9"></path></g></g><mask></mask><g stroke-linecap="round"><g transform="translate(269.9337679229004 189.14950994960964) rotate(0 30.566282020881772 22.62977056019008)"><path d="M0.1 0.4 C14.75 8.12, 25.54 18.7, 61.03 44.86" stroke="#000000" stroke-width="1.5" fill="none" stroke-dasharray="8 9"></path></g></g><mask></mask><g stroke-linecap="round"><g transform="translate(369.6681429229004 190.08700994960964) rotate(0 29.055541085079312 20.765203459188342)"><path d="M-1.74 0.58 C17.26 12.5, 38.95 26.76, 59.85 40.95" stroke="#000000" stroke-width="1.5" fill="none" stroke-dasharray="8 9"></path></g></g><mask></mask><g stroke-linecap="round"><g transform="translate(368.1915804229004 10.797947449609637) rotate(0 73.68102686759084 56.85869818273932)"><path d="M1.42 0.81 C54.68 39.56, 107.32 82.22, 147.43 114.29 M-0.78 -0.67 C38.9 29.1, 76.56 59.44, 148.14 114.39" stroke="#000000" stroke-width="1" fill="none"></path></g></g><mask></mask><g stroke-linecap="round"><g transform="translate(63.105642922900415 10.930759949609637) rotate(0 53.71432806132361 59.11872470052913)"><path d="M-0.1 -0.93 C33.07 38.24, 67.94 73.99, 107.71 117.93 M-0.28 -0.77 C33.23 36.52, 67.67 73.66, 107.57 119.17" stroke="#000000" stroke-width="1" fill="none"></path></g></g><mask></mask><g mask="url(#mask-Yxze4LeNHZWiHXM1AMoZX)" stroke-linecap="round"><g transform="translate(444.80269729961833 400.0814815305439) rotate(0 -91.42838148622832 0.22694495702285167)"><path d="M0.48 -0.75 C-52.34 -2.83, -108.22 -1.81, -182.41 2.25 M-0.03 0.34 C-45.22 -0.82, -88.47 -0.49, -183.33 -0.05" stroke="#000000" stroke-width="1" fill="none"></path></g><g transform="translate(444.80269729961833 400.0814815305439) rotate(0 -91.42838148622832 0.22694495702285167)"><path d="M-154.71 -11.19 C-162.03 -9.35, -172.33 -5.47, -182.34 1.57 M-155.22 -10.1 C-162.75 -8.51, -168.43 -5.82, -183.27 -0.74" stroke="#000000" stroke-width="1" fill="none"></path></g><g transform="translate(444.80269729961833 400.0814815305439) rotate(0 -91.42838148622832 0.22694495702285167)"><path d="M-154.62 9.33 C-161.79 5.15, -172.12 3.01, -182.34 1.57 M-155.13 10.42 C-162.84 7.05, -168.54 4.77, -183.27 -0.74" stroke="#000000" stroke-width="1" fill="none"></path></g></g><mask id="mask-Yxze4LeNHZWiHXM1AMoZX"><rect x="0" y="0" fill="#fff" width="728.2011635474798" height="500.71711069846697"></rect><rect x="347.4834690585001" y="387.89929611450543" fill="#000" width="11.239990234375" height="25" opacity="1"></rect></mask><g transform="translate(347.4834690585001 387.89929611450543) rotate(0 5.890846754889935 12.409130373061316)"><text x="5.6199951171875" y="0" font-family="Virgil, Segoe UI Emoji" font-size="20px" fill="#000000" text-anchor="middle" style="white-space: pre;" direction="ltr" dominant-baseline="text-before-edge">x</text></g><g mask="url(#mask-2Aa_hbAPm4NUi-XpYoeHv)" stroke-linecap="round"><g transform="translate(249.97423918760228 261.27548651210964) rotate(0 47.260250351121385 44.3245344129391)"><path d="M1.72 0.31 C35.39 35.19, 72.56 69.68, 93.62 88.86 M0.9 -0.21 C20.37 17.8, 37.95 35.97, 93.05 88" stroke="#000000" stroke-width="1" fill="none"></path></g><g transform="translate(249.97423918760228 261.27548651210964) rotate(0 47.260250351121385 44.3245344129391)"><path d="M0.02 -0.37 L15.37 6.69 L7.65 15.81 L2.09 0.46" stroke="none" stroke-width="0" fill="#000000" fill-rule="evenodd"></path><path d="M3.01 0.53 C7.22 2.91, 13.75 5.31, 16.81 6.37 M2.4 0.14 C5.43 0.9, 6.97 1.72, 16.38 5.73 M15.66 5.11 C13.54 7.62, 11.14 10.53, 8.06 13.17 M16.26 5.25 C13.71 7.01, 11.02 9.98, 7.48 14.48 M6.47 14.76 C6 7.84, 4.02 3.95, 1.3 0.77 M7.71 13.74 C5.99 10.02, 3.26 5.52, 1.5 -0.32 M1.72 0.31 C1.72 0.31, 1.72 0.31, 1.72 0.31 M1.72 0.31 C1.72 0.31, 1.72 0.31, 1.72 0.31" stroke="#000000" stroke-width="1" fill="none"></path></g><g transform="translate(249.97423918760228 261.27548651210964) rotate(0 47.260250351121385 44.3245344129391)"><path d="M91.35 87.33 L78.34 84.64 L88.22 75.51 L93.43 88.16" stroke="none" stroke-width="0" fill="#000000" fill-rule="evenodd"></path><path d="M94.34 88.23 C87.61 86.66, 83.15 85.28, 79.77 84.32 M93.73 87.84 C90.79 86.57, 86.32 85.33, 79.35 83.67 M78.63 83.06 C81.75 80.36, 84.43 78, 88.64 72.86 M79.22 83.19 C81.38 80.31, 83.23 78.58, 88.05 74.18 M87.05 74.46 C90.51 77.98, 92.54 84.53, 92.64 88.47 M88.28 73.44 C89.73 78.04, 90.2 81.86, 92.83 87.38 M93.05 88 C93.05 88, 93.05 88, 93.05 88 M93.05 88 C93.05 88, 93.05 88, 93.05 88" stroke="#000000" stroke-width="1" fill="none"></path></g></g><mask id="mask-2Aa_hbAPm4NUi-XpYoeHv"><rect x="0" y="0" fill="#fff" width="442.3475862822754" height="448.6727643441409"></rect><rect x="282.1129238433373" y="294.97412542812526" fill="#000" width="28.095977783203125" height="20" opacity="1"></rect></mask><g transform="translate(282.1129238433373 294.97412542812526) rotate(0 15.12156569538638 10.625895496923476)"><text x="14.047988891601562" y="0" font-family="Virgil, Segoe UI Emoji" font-size="16px" fill="#000000" text-anchor="middle" style="white-space: pre;" direction="ltr" dominant-baseline="text-before-edge">Hmz</text></g><g mask="url(#mask-NLY99K7LllvcX9n1HxvgU)" stroke-linecap="round"><g transform="translate(106.49626792290042 284.84482244960964) rotate(0 109.4302747743344 0.9941326051080068)"><path d="M0.66 0.62 C84.42 0.91, 167.53 1.74, 218.96 2.43 M-0.1 -0.44 C74.52 1.89, 148.65 2.18, 218.39 1.57" stroke="#000000" stroke-width="1" fill="none"></path></g><g transform="translate(106.49626792290042 284.84482244960964) rotate(0 109.4302747743344 0.9941326051080068)"><path d="M2.39 2.15 L13.62 -5.96 L13.96 7.43 L0.76 1.73" stroke="none" stroke-width="0" fill="#000000" fill-rule="evenodd"></path><path d="M1.23 1.15 C5.88 -2.41, 9.9 -4.55, 14.33 -4.67 M0.58 0.24 C5.52 -1.43, 10.02 -3.69, 13.84 -5.41 M15.48 -4.61 C14.26 -1.15, 14.47 3.79, 14.78 7.87 M13.76 -5.42 C13.71 -2.58, 14.73 -0.8, 14.62 7.35 M12.89 6.42 C9.96 6.37, 9.12 4.34, 0.16 -0.75 M13.69 7.69 C10.11 6.1, 7.02 3.55, 1.21 0 M0.66 0.62 C0.66 0.62, 0.66 0.62, 0.66 0.62 M0.66 0.62 C0.66 0.62, 0.66 0.62, 0.66 0.62" stroke="#000000" stroke-width="1" fill="none"></path></g><g transform="translate(106.49626792290042 284.84482244960964) rotate(0 109.4302747743344 0.9941326051080068)"><path d="M220.12 3.1 L204.15 7.64 L204.52 -4.33 L218.49 2.68" stroke="none" stroke-width="0" fill="#000000" fill-rule="evenodd"></path><path d="M218.97 2.1 C213 3.25, 206.51 6, 204.85 8.92 M218.31 1.19 C213.99 3.6, 209.26 5.63, 204.37 8.18 M206 8.98 C204.87 2.97, 205.09 -1.55, 205.34 -3.89 M204.29 8.18 C204.38 5.59, 205.41 1.94, 205.18 -4.41 M203.45 -5.34 C207.07 -2.31, 212.74 -1.29, 217.89 0.21 M204.25 -4.07 C207.67 -2.62, 211.65 -1.86, 218.94 0.95 M218.39 1.57 C218.39 1.57, 218.39 1.57, 218.39 1.57 M218.39 1.57 C218.39 1.57, 218.39 1.57, 218.39 1.57" stroke="#000000" stroke-width="1" fill="none"></path></g></g><mask id="mask-NLY99K7LllvcX9n1HxvgU"><rect x="0" y="0" fill="#fff" width="425.4214257675246" height="386.16504246739737"></rect><rect x="201.99085978466564" y="275.5049324585034" fill="#000" width="27.93597412109375" height="20" opacity="1"></rect></mask><g transform="translate(201.99085978466564 275.5049324585034) rotate(0 13.935682912569177 10.334022596214254)"><text x="13.967987060546875" y="0" font-family="Virgil, Segoe UI Emoji" font-size="16px" fill="#000000" text-anchor="middle" style="white-space: pre;" direction="ltr" dominant-baseline="text-before-edge">Hmx</text></g><g stroke-linecap="round"><g transform="translate(61.605642922900415 187.96982244960964) rotate(0 14.756334053352475 10.557089133188128)"><path d="M-1.45 -1.76 C6.67 4.32, 10.74 8.3, 30.96 22.87" stroke="#c92a2a" stroke-width="1.5" fill="none" stroke-dasharray="8 9"></path></g></g><mask></mask><g mask="url(#mask-0cAMtpHmq8HokCxKfy3Vr)" stroke-linecap="round"><g transform="translate(92.01970542290042 267.00107244960964) rotate(0 5.163693775273714 -104.70639127450136)"><path d="M0.94 -1.18 C3.93 -50.46, 3.91 -96.04, 9.79 -209.05 M0.54 0.24 C1.62 -82.87, 6.5 -163.44, 9.37 -209.65" stroke="#000000" stroke-width="1" fill="none"></path></g><g transform="translate(92.01970542290042 267.00107244960964) rotate(0 5.163693775273714 -104.70639127450136)"><path d="M-0.45 0.01 L-6.66 -15.76 L6.54 -12.92 L1.36 -0.59" stroke="none" stroke-width="0" fill="#000000" fill-rule="evenodd"></path><path d="M1.73 -2.19 C0.26 -5.74, -3.01 -6.18, -4.69 -15.25 M1.39 -0.98 C-2.11 -7.27, -3.44 -11.52, -5.04 -15.77 M-5.94 -15.34 C-1.41 -15.01, 2.48 -15.61, 8.76 -15.36 M-4.44 -15.37 C-1.48 -15.28, 1.42 -15.19, 8.12 -14.03 M7.03 -13.52 C5.57 -7.97, 2.57 -4.42, 1.46 -0.5 M7.96 -15.12 C5.87 -11.43, 4.45 -8.49, 0.74 -1.84 M0.94 -1.18 C0.94 -1.18, 0.94 -1.18, 0.94 -1.18 M0.94 -1.18 C0.94 -1.18, 0.94 -1.18, 0.94 -1.18" stroke="#000000" stroke-width="1" fill="none"></path></g><g transform="translate(92.01970542290042 267.00107244960964) rotate(0 5.163693775273714 -104.70639127450136)"><path d="M7.98 -208.46 L13.08 -196.44 L0.96 -194.87 L9.79 -209.06" stroke="none" stroke-width="0" fill="#000000" fill-rule="evenodd"></path><path d="M10.16 -210.65 C11.2 -207.71, 10.57 -201.64, 15.06 -195.94 M9.82 -209.45 C10.97 -204.94, 14.08 -198.28, 14.7 -196.45 M13.81 -196.02 C11.55 -195.93, 8.66 -196.87, 3.18 -197.3 M15.31 -196.05 C12.05 -196.33, 8.75 -196.54, 2.54 -195.98 M1.44 -195.46 C5.4 -200.35, 7.97 -207.32, 9.89 -208.96 M2.38 -197.06 C3.42 -199.7, 5.33 -203.06, 9.17 -210.3 M9.37 -209.65 C9.37 -209.65, 9.37 -209.65, 9.37 -209.65 M9.37 -209.65 C9.37 -209.65, 9.37 -209.65, 9.37 -209.65" stroke="#000000" stroke-width="1" fill="none"></path></g></g><mask id="mask-0cAMtpHmq8HokCxKfy3Vr"><rect x="0" y="0" fill="#fff" width="201.61583579399417" height="575.7727399300784"></rect><rect x="83.59377921440432" y="152.61523870937526" fill="#000" width="26.447982788085938" height="20" opacity="1"></rect></mask><g transform="translate(83.59377921440432 152.61523870937526) rotate(0 13.589619983769808 9.679442465733018)"><text x="13.223991394042969" y="0" font-family="Virgil, Segoe UI Emoji" font-size="16px" fill="#000000" text-anchor="middle" style="white-space: pre;" direction="ltr" dominant-baseline="text-before-edge">Hmy</text></g><g stroke-linecap="round"><g transform="translate(43.93295594783035 186.9481406457612) rotate(0 -0.3069305381129652 26.38980537646262)"><path d="M-0.63 -1.23 C-0.74 18.34, 0.38 40.08, -0.14 54.01 M-0.14 0.07 C-0.74 19.43, -1.14 37.53, 0.1 52.72" stroke="#000000" stroke-width="1" fill="none"></path></g><g transform="translate(43.93295594783035 186.9481406457612) rotate(0 -0.3069305381129652 26.38980537646262)"><path d="M1.34 0.72 L5.69 11.98 L-5.31 12.01 L-1.72 0.27" stroke="none" stroke-width="0" fill="#000000" fill-rule="evenodd"></path><path d="M-1.1 -2.15 C1.21 2.49, 4.5 8.79, 5.73 12.89 M-0.74 -1.17 C1.28 3.96, 3.27 8.18, 5.91 11.92 M6.65 13.25 C2.29 11.43, 0 12.74, -5.76 12.53 M5.33 12.02 C2.77 12.66, -0.85 12.61, -6.14 12.54 M-7.99 13.73 C-6.05 7.45, -3.67 4.82, -0.74 -0.59 M-6.64 12.27 C-3.61 7.81, -2.1 2.7, -0.22 -1.27 M-0.63 -1.23 C-0.63 -1.23, -0.63 -1.23, -0.63 -1.23 M-0.63 -1.23 C-0.63 -1.23, -0.63 -1.23, -0.63 -1.23" stroke="#000000" stroke-width="1" fill="none"></path></g><g transform="translate(43.93295594783035 186.9481406457612) rotate(0 -0.3069305381129652 26.38980537646262)"><path d="M2.07 54.66 L-7.11 39.16 L7.22 38.37 L-0.99 54.21" stroke="none" stroke-width="0" fill="#000000" fill-rule="evenodd"></path><path d="M-0.37 51.8 C-3.26 46.32, -5.1 42.45, -7.08 40.06 M0 52.77 C-2.61 48.49, -5.42 43.23, -6.9 39.1 M-6.16 40.43 C-5.15 38.27, -2.08 39.41, 6.77 38.9 M-7.48 39.2 C-2.68 39.53, 1.07 39.24, 6.39 38.9 M4.55 40.09 C3.11 41.98, 2.05 47.4, -0.01 53.35 M5.89 38.63 C4.26 44.69, 1.28 50.07, 0.51 52.67 M0.1 52.72 C0.1 52.72, 0.1 52.72, 0.1 52.72 M0.1 52.72 C0.1 52.72, 0.1 52.72, 0.1 52.72" stroke="#000000" stroke-width="1" fill="none"></path></g></g><mask></mask><g transform="translate(24.814566262744165 202.86081366054714) rotate(0 8.159996032714844 10)"><text x="0" y="0" font-family="Virgil, Segoe UI Emoji" font-size="16px" fill="#000000" text-anchor="start" style="white-space: pre;" direction="ltr" dominant-baseline="text-before-edge">Hy</text></g><g stroke-linecap="round"><g transform="translate(295.9950472197754 209.49411444179714) rotate(0 20.060786362271756 13.680132624227554)"><path d="M1 1.87 C12.21 7.97, 28.15 17.84, 39.66 26.65 M0.46 0.71 C14.33 8.67, 28.92 19.09, 38.2 25.15" stroke="#000000" stroke-width="1" fill="none"></path></g><g transform="translate(295.9950472197754 209.49411444179714) rotate(0 20.060786362271756 13.680132624227554)"><path d="M2.07 1.09 L17.02 4.85 L9.22 13.01 L0.68 2.74" stroke="none" stroke-width="0" fill="#000000" fill-rule="evenodd"></path><path d="M1.74 3.28 C5.26 1.8, 12.29 3.12, 16.86 4.71 M1.34 2.41 C6.75 2.14, 12.6 3.66, 15.76 3.59 M15.62 2.44 C12.67 8.35, 10.71 12.93, 9.78 13.97 M15.63 3.29 C13.93 6.61, 11.98 9.51, 9.1 14.39 M10.57 13.71 C7.96 11.31, 3.89 7.58, 0.4 2.55 M9.32 14.89 C7.44 11.54, 5.27 8.44, 0.35 1.35 M1 1.87 C1 1.87, 1 1.87, 1 1.87 M1 1.87 C1 1.87, 1 1.87, 1 1.87" stroke="#000000" stroke-width="1" fill="none"></path></g><g transform="translate(295.9950472197754 209.49411444179714) rotate(0 20.060786362271756 13.680132624227554)"><path d="M39.28 24.36 L24.5 24.16 L30.35 10.96 L37.89 26.02" stroke="none" stroke-width="0" fill="#000000" fill-rule="evenodd"></path><path d="M38.95 26.55 C31.92 23.75, 28.41 23.66, 24.33 24.02 M38.55 25.68 C33.06 24.11, 27.98 24.17, 23.24 22.9 M23.09 21.76 C25.31 19.21, 28.71 15.41, 30.92 11.92 M23.1 22.61 C25.07 19.99, 26.86 17.04, 30.23 12.34 M31.7 11.67 C33.87 16.58, 34.45 20.18, 37.61 25.83 M30.45 12.84 C32.03 14.93, 33.3 17.26, 37.55 24.63 M38.2 25.15 C38.2 25.15, 38.2 25.15, 38.2 25.15 M38.2 25.15 C38.2 25.15, 38.2 25.15, 38.2 25.15" stroke="#000000" stroke-width="1" fill="none"></path></g></g><mask></mask><g transform="translate(319.5210481963379 203.03830389492214) rotate(0 8.983993530273438 10)"><text x="0" y="0" font-family="Virgil, Segoe UI Emoji" font-size="16px" fill="#000000" text-anchor="start" style="white-space: pre;" direction="ltr" dominant-baseline="text-before-edge">Hz</text></g><g stroke-linecap="round"><g transform="translate(66.34132994686047 10) rotate(0 0.3925013932782804 120.52409302513104)"><path d="M-0.36 0.97 C-0.34 41.01, -1.16 199.48, -1.02 239.4 M1.65 0.43 C2.14 40.7, 1.44 200.96, 1.16 240.62" stroke="#000000" stroke-width="1" fill="none"></path></g></g><mask></mask><g mask="url(#mask--syS7JBa2aZIS3UflxIxz)" stroke-linecap="round"><g transform="translate(10.033221951685846 285.48044990114295) rotate(0 33.79079789483728 42.55838633573558)"><path d="M0.48 -0.75 C20.36 23.42, 37.88 48.99, 67.61 85.87 M-0.03 0.34 C15.96 20.05, 33.22 40.61, 66.69 83.56" stroke="#000000" stroke-width="1" fill="none"></path></g><g transform="translate(10.033221951685846 285.48044990114295) rotate(0 33.79079789483728 42.55838633573558)"><path d="M41.66 67.02 C50.05 70.81, 55.5 76.28, 67.68 85.18 M41.15 68.11 C46.65 71.14, 53.96 75.14, 66.76 82.87" stroke="#000000" stroke-width="1" fill="none"></path></g><g transform="translate(10.033221951685846 285.48044990114295) rotate(0 33.79079789483728 42.55838633573558)"><path d="M57.78 54.32 C61.33 61.73, 62.05 70.93, 67.68 85.18 M57.27 55.41 C58.97 61.48, 62.38 68.55, 66.76 82.87" stroke="#000000" stroke-width="1" fill="none"></path></g></g><mask id="mask--syS7JBa2aZIS3UflxIxz"><rect x="0" y="0" fill="#fff" width="176.65817789364223" height="469.73044231762424"></rect><rect x="37.62570633135533" y="315.1054461093836" fill="#000" width="11.439987182617188" height="25" opacity="1"></rect></mask><g transform="translate(37.62570633135533 315.1054461093836) rotate(0 6.198313515167797 12.933390127494931)"><text x="5.719993591308594" y="0" font-family="Virgil, Segoe UI Emoji" font-size="20px" fill="#000000" text-anchor="middle" style="white-space: pre;" direction="ltr" dominant-baseline="text-before-edge">z</text></g><g mask="url(#mask-VpN5fS-foszSDFY_E-lkE)" stroke-linecap="round"><g transform="translate(582.6547363661455 350.8994158503692) rotate(0 -0.04250655069859022 -60.6301096929069)"><path d="M0.48 -0.75 C2.28 -37.27, -0.01 -71.94, 0.13 -119.3 M-0.03 0.34 C-2 -29.78, -1.07 -58.87, -0.79 -121.6" stroke="#000000" stroke-width="1" fill="none"></path></g><g transform="translate(582.6547363661455 350.8994158503692) rotate(0 -0.04250655069859022 -60.6301096929069)"><path d="M9.75 -94.09 C8.07 -103.47, 3.07 -110.94, 0.2 -119.98 M9.24 -93 C5.78 -100.72, 4.48 -107.39, -0.72 -122.29" stroke="#000000" stroke-width="1" fill="none"></path></g><g transform="translate(582.6547363661455 350.8994158503692) rotate(0 -0.04250655069859022 -60.6301096929069)"><path d="M-10.77 -94.24 C-6.43 -103.43, -5.4 -110.86, 0.2 -119.98 M-11.28 -93.14 C-9.77 -100.77, -6.11 -107.41, -0.72 -122.29" stroke="#000000" stroke-width="1" fill="none"></path></g></g><mask id="mask-VpN5fS-foszSDFY_E-lkE"><rect x="0" y="0" fill="#fff" width="683.510877349632" height="571.813751253927"></rect><rect x="577.5366710623905" y="277.94224814859035" fill="#000" width="9.379989624023438" height="25" opacity="1"></rect></mask><g transform="translate(577.5366710623905 277.94224814859035) rotate(0 5.075558753056384 12.327058008871973)"><text x="4.689994812011719" y="0" font-family="Virgil, Segoe UI Emoji" font-size="20px" fill="#000000" text-anchor="middle" style="white-space: pre;" direction="ltr" dominant-baseline="text-before-edge">y</text></g></svg>